<?xml version="1.0" encoding="UTF-8"?>
<!DOCTYPE svg PUBLIC "-//W3C//DTD SVG 1.1//EN" "http://www.w3.org/Graphics/SVG/1.1/DTD/svg11.dtd">
<!-- Creator: CorelDRAW X7 -->
<svg xmlns="http://www.w3.org/2000/svg" xml:space="preserve" width="1024px" height="1024px" version="1.1" style="shape-rendering:geometricPrecision; text-rendering:geometricPrecision; image-rendering:optimizeQuality; fill-rule:evenodd; clip-rule:evenodd"
viewBox="0 0 10240 10240"
 xmlns:xlink="http://www.w3.org/1999/xlink">
 <defs>
  <style type="text/css">
   <![CDATA[
    .fil0 {fill:#606062}
    .fil2 {fill:#CCE7D4}
    .fil1 {fill:#AFD9B2}
    .fil3 {fill:#AFD9B2;fill-rule:nonzero}
   ]]>
  </style>
 </defs>
 <g id="Layer_x0020_1">
  <metadata id="CorelCorpID_0Corel-Layer"/>
  <circle class="fil0" cx="5120" cy="5120" r="5120"/>
  <path class="fil1" d="M5120 1128c2204,0 3992,1788 3992,3992 0,2204 -1788,3992 -3992,3992 -2204,0 -3992,-1788 -3992,-3992 0,-2204 1788,-3992 3992,-3992zm0 400c1984,0 3592,1608 3592,3592 0,1984 -1608,3592 -3592,3592 -1984,0 -3592,-1608 -3592,-3592 0,-1984 1608,-3592 3592,-3592z"/>
  <path class="fil2" d="M5120 356c2631,0 4764,2133 4764,4764 0,2631 -2133,4764 -4764,4764 -2631,0 -4764,-2133 -4764,-4764 0,-2631 2133,-4764 4764,-4764zm0 808c2185,0 3956,1771 3956,3956 0,2185 -1771,3956 -3956,3956 -2185,0 -3956,-1771 -3956,-3956 0,-2185 1771,-3956 3956,-3956z"/>
  <g id="_543428528">
   <path class="fil3" d="M5378 3137l1060 1835c3,5 6,11 9,16l1052 1824c81,141 33,321 -108,402 -47,27 -97,39 -147,39l0 2 -754 0 -681 0 -342 -593 -240 -414c211,-33 388,-167 479,-352l443 766 584 0 -797 -1379c-3,-5 -6,-10 -9,-15l-806 -1396 -806 1396 -1 -1 -805 1395 583 0 452 -783c87,189 261,328 471,366l-241 417 -342 593 -681 0 -754 0c-163,0 -296,-133 -296,-297 0,-63 21,-123 55,-171l1047 -1814 1 -1 -1 0 1062 -1839c82,-141 262,-189 404,-108 47,28 84,67 109,112z"/>
   <circle class="fil1" cx="5129" cy="5612" r="472"/>
  </g>
 </g>
</svg>
